<svg width="512" height="512" viewBox="0 0 512 512" fill="none" xmlns="http://www.w3.org/2000/svg">
  <defs>
    <linearGradient id="hubGradient" x1="0%" y1="0%" x2="100%" y2="100%">
      <stop offset="0%" style="stop-color:#4ADE80;stop-opacity:1" />
      <stop offset="100%" style="stop-color:#3B82F6;stop-opacity:1" />
    </linearGradient>
  </defs>
  
  <!-- Outer Ring representing the Hub -->
  <circle cx="256" cy="256" r="240" stroke="url(#hubGradient)" stroke-width="20" fill="none" opacity="0.3"/>
  
  <!-- Connection Nodes on the ring -->
  <circle cx="256" cy="16" r="16" fill="url(#hubGradient)" />
  <circle cx="496" cy="256" r="16" fill="url(#hubGradient)" />
  <circle cx="256" cy="496" r="16" fill="url(#hubGradient)" />
  <circle cx="16" cy="256" r="16" fill="url(#hubGradient)" />

  <!-- Background for Paw -->
  <circle cx="256" cy="256" r="190" fill="white" fill-opacity="0.9"/>
  
  <!-- Central Paw Print -->
  <g fill="url(#hubGradient)">
    <!-- Main Pad -->
    <path d="M256,360 c-45,0 -75,-30 -75,-80 c0,-60 75,-110 75,-110 s75,50 75,110 c0,50 -30,80 -75,80 z" />
    <!-- Toes -->
    <ellipse cx="160" cy="210" rx="35" ry="55" transform="rotate(-35 160 210)" />
    <ellipse cx="352" cy="210" rx="35" ry="55" transform="rotate(35 352 210)" />
    <ellipse cx="210" cy="130" rx="35" ry="55" transform="rotate(-15 210 130)" />
    <ellipse cx="302" cy="130" rx="35" ry="55" transform="rotate(15 302 130)" />
  </g>
  
  <!-- Text Label (Optional, usually SVGs strictly for icons might not want text, but user asked for "animals-hub theme") -->
  <!-- Making it subtle at the bottom or removing it? Let's keep it clean without text inside the logo usually better for re-use, 
       but "theme" might imply a banner. I'll stick to just the logo symbol as it's more versatile as an "svg asset". 
       If I add text it might not scale well or fit context. 
       Wait, if it's a "theme svg", it might be a background pattern?
       "animals-hub 主题的svg" -> "animals-hub themed svg". 
       I will assume a logo/icon. 
  -->
</svg>
