<svg xmlns="http://www.w3.org/2000/svg" viewBox="0 0 100 100" fill="none">
  <!-- Background Glow & Head Shape -->
  <defs>
    <filter id="glow" x="-20%" y="-20%" width="140%" height="140%">
      <feGaussianBlur stdDeviation="2" result="blur" />
      <feComposite in="SourceGraphic" in2="blur" operator="over" />
    </filter>
  </defs>

  <!-- Ears -->
  <circle cx="15" cy="50" r="10" fill="#FFE135" stroke="#09090b" stroke-width="2" />
  <circle cx="85" cy="50" r="10" fill="#FFE135" stroke="#09090b" stroke-width="2" />
  <circle cx="15" cy="50" r="5" fill="#F48FB1" /> <!-- Pink Kawaii inner ear -->
  <circle cx="85" cy="50" r="5" fill="#F48FB1" />

  <!-- Main Head -->
  <rect x="20" y="25" width="60" height="55" rx="20" fill="#FFE135" stroke="#09090b" stroke-width="2" />

  <!-- Cyber Visor Area -->
  <path d="M 20 45 L 80 45 L 80 60 Q 50 65 20 60 Z" fill="#09090b" />
  
  <!-- Glowing visor line -->
  <path d="M 25 52 L 75 52" stroke="#4CAF50" stroke-width="3" stroke-linecap="round" filter="url(#glow)">
     <animate attributeName="stroke-opacity" values="1;0.4;1" dur="2s" repeatCount="indefinite" />
  </path>
  
  <!-- Digital Eyes -->
  <rect x="35" y="48" width="8" height="8" rx="1" fill="#00FF00" opacity="0.9">
      <animate attributeName="opacity" values="0.9;0.2;0.9" dur="0.1s" repeatCount="indefinite" begin="0s" />
  </rect>
  <rect x="57" y="48" width="8" height="8" rx="1" fill="#00FF00" opacity="0.9">
      <animate attributeName="opacity" values="0.9;0.2;0.9" dur="0.1s" repeatCount="indefinite" begin="0.05s" />
  </rect>

  <!-- Cute Mouth -->
  <path d="M 40 70 Q 50 78 60 70" stroke="#09090b" stroke-width="3" stroke-linecap="round" fill="none" />
  
  <!-- Antenna -->
  <line x1="50" y1="25" x2="50" y2="10" stroke="#09090b" stroke-width="2" />
  <circle cx="50" cy="8" r="4" fill="#F48FB1">
    <animate attributeName="fill" values="#F48FB1;#FFeb3b;#F48FB1" dur="1.5s" repeatCount="indefinite" />
  </circle>
  
  <!-- Cheeks -->
  <circle cx="30" cy="65" r="3" fill="#F48FB1" opacity="0.6" />
  <circle cx="70" cy="65" r="3" fill="#F48FB1" opacity="0.6" />

</svg>